<svg width="931" height="841" viewBox="0 0 931 841" fill="none" xmlns="http://www.w3.org/2000/svg">
<path d="M451.984 11.9883C459.27 2.58915 473.57 2.67218 480.732 12.2363C485.025 17.1486 509.569 49.6236 542.037 97.3506C572.441 142.044 609.973 200.375 644.68 262.555C646.784 243.398 653.617 221.814 662.927 199.795C674.252 173.011 689.444 145.123 704.966 119.437C736.013 68.0566 768.618 25.0994 774.917 16.7998L775.814 15.6152L776.032 15.332C780.641 9.53989 789.492 9.57481 794.05 15.4375C796.183 17.8636 805.08 29.3122 817.147 46.1865C829.736 63.7898 845.978 87.5762 862.044 113.888C878.101 140.184 894.038 169.092 905.975 196.923C917.865 224.644 926 251.778 926 274.383C926 350.351 862.756 411.68 785.001 411.68C756.3 411.68 729.587 403.328 707.302 388.976C732.203 448.065 749 505.292 749 552.339C749 708.513 622.445 835.073 466.267 835.073H466.265C310.09 835.073 183.531 708.517 183.531 552.339C183.531 528.195 187.974 501.45 195.635 473.237C175.52 489.151 149.893 498.68 122.001 498.68C57.4946 498.68 5.00019 447.687 5 384.493C5 366.277 11.3494 344.654 20.6553 322.598C30.0037 300.44 42.5368 277.385 55.3311 256.166C80.9242 213.72 107.799 178.238 112.991 171.382L113.725 170.409H113.726L113.922 170.153C118.064 164.937 126.025 164.961 130.133 170.226C133.715 174.336 159.704 208.301 185.274 250.062C198.36 271.433 211.429 294.991 221.389 317.796C228.28 333.574 233.774 349.199 236.694 363.61C309.053 205.548 431.896 39.1963 449.786 14.9658L451.641 12.4473L451.984 11.9883ZM479.005 72.1787C472.848 63.4769 460.187 63.3408 453.827 71.7705L453.529 72.1787C420.012 119.551 361.52 205.561 311.428 296.934C286.381 342.621 263.482 389.562 246.857 433.623C230.204 477.759 219.985 518.648 219.985 552.339C219.985 688.439 330.159 798.622 466.267 798.622C602.367 798.622 712.55 688.446 712.55 552.339C712.55 518.647 702.33 477.757 685.677 433.621C669.052 389.56 646.154 342.619 621.107 296.932C572.581 208.415 516.17 124.931 482.22 76.7324L479.005 72.1787ZM338.161 627.775C340.863 627.046 343.713 627.217 346.245 628.531C348.946 629.933 350.793 632.38 351.699 635.242L352.046 636.315C367.002 681.561 415.828 706.165 460.846 691.919L461.384 691.761C464.086 691.032 466.936 691.204 469.468 692.518C472 693.832 473.782 696.064 474.741 698.696L474.922 699.228L474.924 699.233L475.081 699.772C475.807 702.476 475.631 705.325 474.315 707.854C473 710.384 470.768 712.163 468.138 713.121L467.607 713.302C410.334 731.426 349.538 700.232 330.749 643.358L330.313 642.01C329.409 639.151 329.51 636.088 330.911 633.388C332.313 630.686 334.76 628.839 337.622 627.934L338.161 627.775ZM134.425 211.1C128.428 202.56 116.062 202.426 109.866 210.699L109.576 211.1C94.2498 232.924 73.1747 264.637 55.9521 296.89C47.3411 313.015 39.7388 329.192 34.2988 344.275C28.8378 359.417 25.668 373.156 25.668 384.493C25.6682 436.204 68.6412 478.281 122.001 478.281C175.358 478.281 218.334 436.206 218.334 384.493C218.334 373.156 215.164 359.417 209.703 344.275C204.263 329.192 196.66 313.015 188.049 296.889C171.903 266.652 152.371 236.89 137.364 215.305L134.425 211.1ZM797.473 58.7441C791.425 50.2338 779.066 50.1004 772.821 58.3447L772.528 58.7441C754.294 84.4037 727.799 123.638 705.883 163.979C694.925 184.149 685.159 204.511 678.143 223.529C671.103 242.611 666.954 260.021 666.954 274.383C666.954 337.638 719.631 389.08 785.001 389.08C850.368 389.08 903.048 337.641 903.048 274.383C903.048 260.021 898.899 242.61 891.859 223.528C884.843 204.51 875.077 184.148 864.119 163.978C843.573 126.158 819.001 89.3116 800.985 63.7109L797.473 58.7441Z" fill="black" stroke="black" stroke-width="10"/>
</svg>
